<?xml version="1.0" encoding="UTF-8"?>
<svg xmlns="http://www.w3.org/2000/svg" xmlns:xlink="http://www.w3.org/1999/xlink" width="0" height="0">
<defs>
<symbol viewBox="0 0 24 24" fill="none" stroke="currentColor" strokeWidth="2" strokeLinecap="round" strokeLinejoin="round" id="WavesIcon">
      <path d="M2 6c.6.5 1.2 1 2.5 1C7 7 7 5 9.5 5c2.6 0 2.4 2 5 2 2.5 0 2.5-2 5-2 1.3 0 1.9.5 2.5 1" ></path>
      <path d="M2 12c.6.5 1.2 1 2.5 1 2.5 0 2.5-2 5-2 2.6 0 2.4 2 5 2 2.5 0 2.5-2 5-2 1.3 0 1.9.5 2.5 1" ></path>
      <path d="M2 18c.6.5 1.2 1 2.5 1 2.5 0 2.5-2 5-2 2.6 0 2.4 2 5 2 2.5 0 2.5-2 5-2 1.3 0 1.9.5 2.5 1" ></path>
    </symbol>
<symbol viewBox="0 0 24 24" fill="none" stroke="currentColor" strokeWidth="2" strokeLinecap="round" strokeLinejoin="round" id="TicketIcon">
      <path d="M2 9a3 3 0 0 1 0 6v2a2 2 0 0 0 2 2h16a2 2 0 0 0 2-2v-2a3 3 0 0 1 0-6V7a2 2 0 0 0-2-2H4a2 2 0 0 0-2 2Z" ></path>
      <path d="M13 5v2" ></path>
      <path d="M13 17v2" ></path>
      <path d="M13 11v2" ></path>
    </symbol>
<symbol viewBox="0 0 24 24" fill="currentColor" stroke="currentColor" strokeWidth="2" strokeLinecap="round" strokeLinejoin="round" id="StarIconFill">
      <polygon points="12 2 15.09 8.26 22 9.27 17 14.14 18.18 21.02 12 17.77 5.82 21.02 7 14.14 2 9.27 8.91 8.26 12 2" ></polygon>
</symbol>
<symbol viewBox="0 0 24 24" fill="none" stroke="currentColor" strokeWidth="2" strokeLinecap="round" strokeLinejoin="round" id="StarIcon">
      <polygon points="12 2 15.09 8.26 22 9.27 17 14.14 18.18 21.02 12 17.77 5.82 21.02 7 14.14 2 9.27 8.91 8.26 12 2" ></polygon>
    </symbol>
<symbol viewBox="0 0 24 24" fill="none" stroke="currentColor" strokeWidth="2" strokeLinecap="round" strokeLinejoin="round" id="ShirtIcon">
      <path d="M20.38 3.46 16 2a4 4 0 0 1-8 0L3.62 3.46a2 2 0 0 0-1.34 2.23l.58 3.47a1 1 0 0 0 .99.84H6v10c0 1.1.9 2 2 2h8a2 2 0 0 0 2-2V10h2.15a1 1 0 0 0 .99-.84l.58-3.47a2 2 0 0 0-1.34-2.23z" ></path>
    </symbol>
<symbol viewBox="0 0 24 24" fill="none" stroke="currentColor" strokeWidth="2" strokeLinecap="round" strokeLinejoin="round" id="SailboatIcon">
      <path d="M22 18H2a4 4 0 0 0 4 4h12a4 4 0 0 0 4-4Z" ></path>
      <path d="M21 14 10 2 3 14h18Z" ></path>
      <path d="M10 2v16" ></path>
    </symbol>
<symbol viewBox="0 0 24 24" fill="none" stroke="currentColor" strokeWidth="2" strokeLinecap="round" strokeLinejoin="round" id="Ruler">
      <path d="M21.3 15.3a2.4 2.4 0 0 1 0 3.4l-2.6 2.6a2.4 2.4 0 0 1-3.4 0L2.7 8.7a2.41 2.41 0 0 1 0-3.4l2.6-2.6a2.41 2.41 0 0 1 3.4 0Z" ></path>
      <path d="m14.5 12.5 2-2" ></path>
      <path d="m11.5 9.5 2-2" ></path>
      <path d="m8.5 6.5 2-2" ></path>
      <path d="m17.5 15.5 2-2" ></path>
    </symbol>
<symbol viewBox="0 0 24 24" fill="none" stroke="currentColor" strokeWidth="2" strokeLinecap="round" strokeLinejoin="round" id="GaugeIcon">
      <path d="m12 14 4-4" ></path>
      <path d="M3.34 19a10 10 0 1 1 17.32 0" ></path>
    </symbol>
<symbol viewBox="0 0 24 24" fill="none" stroke="currentColor" strokeWidth="2" strokeLinecap="round" strokeLinejoin="round" id="CompassIcon">
      <circle cx="12" cy="12" r="10" ></circle>
      <polygon points="16.24 7.76 14.12 14.12 7.76 16.24 9.88 9.88 16.24 7.76" ></polygon>
    </symbol>
<symbol viewBox="0 0 15 15" fill="none" id="CardStack">
  <path 
    fill-rule="evenodd"
    clip-rule="evenodd"
    d="M2 3.5C2 3.22386 2.22386 3 2.5 3H12.5C12.7761 3 13 3.22386 13 3.5V9.5C13 9.77614 12.7761 10 12.5 10H2.5C2.22386 10 2 9.77614 2 9.5V3.5ZM2 10.9146C1.4174 10.7087 1 10.1531 1 9.5V3.5C1 2.67157 1.67157 2 2.5 2H12.5C13.3284 2 14 2.67157 14 3.5V9.5C14 10.1531 13.5826 10.7087 13 10.9146V11.5C13 12.3284 12.3284 13 11.5 13H3.5C2.67157 13 2 12.3284 2 11.5V10.9146ZM12 11V11.5C12 11.7761 11.7761 12 11.5 12H3.5C3.22386 12 3 11.7761 3 11.5V11H12Z"
    fill="currentColor"
  ></path>
</symbol>
<symbol viewBox="0 0 15 15" fill="none" id="Camera">
  <path 
    fill-rule="evenodd"
    clip-rule="evenodd"
    d="M2 3C1.44772 3 1 3.44772 1 4V11C1 11.5523 1.44772 12 2 12H13C13.5523 12 14 11.5523 14 11V4C14 3.44772 13.5523 3 13 3H2ZM0 4C0 2.89543 0.895431 2 2 2H13C14.1046 2 15 2.89543 15 4V11C15 12.1046 14.1046 13 13 13H2C0.895431 13 0 12.1046 0 11V4ZM2 4.25C2 4.11193 2.11193 4 2.25 4H4.75C4.88807 4 5 4.11193 5 4.25V5.75454C5 5.89261 4.88807 6.00454 4.75 6.00454H2.25C2.11193 6.00454 2 5.89261 2 5.75454V4.25ZM12.101 7.58421C12.101 9.02073 10.9365 10.1853 9.49998 10.1853C8.06346 10.1853 6.89893 9.02073 6.89893 7.58421C6.89893 6.14769 8.06346 4.98315 9.49998 4.98315C10.9365 4.98315 12.101 6.14769 12.101 7.58421ZM13.101 7.58421C13.101 9.57302 11.4888 11.1853 9.49998 11.1853C7.51117 11.1853 5.89893 9.57302 5.89893 7.58421C5.89893 5.5954 7.51117 3.98315 9.49998 3.98315C11.4888 3.98315 13.101 5.5954 13.101 7.58421Z"
    fill="currentColor"
  ></path>
</symbol>
<symbol viewBox="0 0 24 24" fill="none" stroke="currentColor" strokeWidth="2" strokeLinecap="round" strokeLinejoin="round" id="CalendarIcon">
      <path d="M8 2v4" ></path>
      <path d="M16 2v4" ></path>
      <rect width="18" height="18" x="3" y="4" rx="2" ></rect>
      <path d="M3 10h18" ></path>
    </symbol>
<symbol viewBox="0 0 24 24" fill="none" stroke="currentColor" strokeWidth="2" strokeLinecap="round" strokeLinejoin="round" id="CalendarDaysIcon">
      <path d="M8 2v4" ></path>
      <path d="M16 2v4" ></path>
      <rect width="18" height="18" x="3" y="4" rx="2" ></rect>
      <path d="M3 10h18" ></path>
      <path d="M8 14h.01" ></path>
      <path d="M12 14h.01" ></path>
      <path d="M16 14h.01" ></path>
      <path d="M8 18h.01" ></path>
      <path d="M12 18h.01" ></path>
      <path d="M16 18h.01" ></path>
    </symbol>
<symbol viewBox="0 0 24 24" fill="none" stroke="currentColor" strokeWidth="2" strokeLinecap="round" strokeLinejoin="round" id="CalendarCheckIcon">
      <path d="M8 2v4" ></path>
      <path d="M16 2v4" ></path>
      <rect width="18" height="18" x="3" y="4" rx="2" ></rect>
      <path d="M3 10h18" ></path>
      <path d="m9 16 2 2 4-4" ></path>
    </symbol>
<symbol viewBox="0 0 24 24" fill="none" id="BedSvgrepoCom">
<path d="M3 5V19M3 16H21M21 19V13.2C21 12.0799 21 11.5198 20.782 11.092C20.5903 10.7157 20.2843 10.4097 19.908 10.218C19.4802 10 18.9201 10 17.8 10H11V15.7273M7 12H7.01M8 12C8 12.5523 7.55228 13 7 13C6.44772 13 6 12.5523 6 12C6 11.4477 6.44772 11 7 11C7.55228 11 8 11.4477 8 12Z" stroke="#000000" stroke-width="2" stroke-linecap="round" stroke-linejoin="round"></path>
</symbol>
<symbol viewBox="0 0 24 24" fill="none" stroke="currentColor" strokeWidth="2" strokeLinecap="round" strokeLinejoin="round" id="AnchorIcon">
      <path d="M12 22V8" ></path>
      <path d="M5 12H2a10 10 0 0 0 20 0h-3" ></path>
      <circle cx="12" cy="5" r="3" ></circle>
    </symbol>
</defs>
</svg>